HIERARCHY
ROOT Hips
{
	OFFSET 0.000000 0.000000 0.000000
	CHANNELS 6 Xposition Yposition Zposition Yrotation Xrotation Zrotation
	JOINT Chest
	{
		OFFSET 0.000000 -0.009281 11.569106
		CHANNELS 3 Yrotation Xrotation Zrotation
		JOINT Chest2
		{
			OFFSET -0.000000 0.016865 9.269641
			CHANNELS 3 Yrotation Xrotation Zrotation
			JOINT Chest3
			{
				OFFSET -0.000000 0.000001 8.374491
				CHANNELS 3 Yrotation Xrotation Zrotation
				JOINT Chest4
				{
					OFFSET -0.000000 0.000001 8.374493
					CHANNELS 3 Yrotation Xrotation Zrotation
					JOINT Neck
					{
						OFFSET -0.000000 0.000002 12.152554
						CHANNELS 3 Yrotation Xrotation Zrotation
						JOINT Head
						{
							OFFSET -0.000000 0.040101 7.802319
							CHANNELS 3 Yrotation Xrotation Zrotation
							End Site
							{
								OFFSET -0.000000 0.020947 14.853096
							}
						}
					}
					JOINT RightCollar
					{
						OFFSET 2.894404 0.000001 6.791374
						CHANNELS 3 Yrotation Xrotation Zrotation
						JOINT RightShoulder
						{
							OFFSET 13.574684 0.000001 0.000000
							CHANNELS 3 Yrotation Xrotation Zrotation
							JOINT RightElbow
							{
								OFFSET 23.923903 0.000002 0.000000
								CHANNELS 3 Yrotation Xrotation Zrotation
								JOINT RightWrist
								{
									OFFSET 19.846718 0.012767 0.000000
									CHANNELS 3 Yrotation Xrotation Zrotation
									End Site
									{
										OFFSET 14.973145 0.000001 0.000000
									}
								}
							}
						}
					}
					JOINT LeftCollar
					{
						OFFSET -2.894404 0.000001 6.791374
						CHANNELS 3 Yrotation Xrotation Zrotation
						JOINT LeftShoulder
						{
							OFFSET -13.574684 -0.000001 0.000000
							CHANNELS 3 Yrotation Xrotation Zrotation
							JOINT LeftElbow
							{
								OFFSET -23.923903 -0.000002 0.000000
								CHANNELS 3 Yrotation Xrotation Zrotation
								JOINT LeftWrist
								{
									OFFSET -19.846718 0.012763 0.000000
									CHANNELS 3 Yrotation Xrotation Zrotation
									End Site
									{
										OFFSET -14.973145 -0.000001 0.000000
									}
								}
							}
						}
					}
				}
			}
		}
	}
	JOINT RightHip
	{
		OFFSET 9.469263 0.004643 0.045487
		CHANNELS 3 Yrotation Xrotation Zrotation
		JOINT RightKnee
		{
			OFFSET 0.000000 0.002661 -40.478676
			CHANNELS 3 Yrotation Xrotation Zrotation
			JOINT RightAnkle
			{
				OFFSET 0.000000 0.049106 -35.224068
				CHANNELS 3 Yrotation Xrotation Zrotation
				JOINT RightToe
				{
					OFFSET -0.000001 12.539529 -6.151390
					CHANNELS 3 Yrotation Xrotation Zrotation
					End Site
					{
						OFFSET -0.000001 5.044994 -1.291870
					}
				}
			}
		}
	}
	JOINT LeftHip
	{
		OFFSET -9.469263 0.004641 0.045487
		CHANNELS 3 Yrotation Xrotation Zrotation
		JOINT LeftKnee
		{
			OFFSET 0.000000 0.002661 -40.478676
			CHANNELS 3 Yrotation Xrotation Zrotation
			JOINT LeftAnkle
			{
				OFFSET 0.000000 0.049106 -35.224068
				CHANNELS 3 Yrotation Xrotation Zrotation
				JOINT LeftToe
				{
					OFFSET -0.000001 12.539529 -6.151390
					CHANNELS 3 Yrotation Xrotation Zrotation
					End Site
					{
						OFFSET -0.000001 5.044994 -1.291870
					}
				}
			}
		}
	}
}
MOTION
Frames: 17
Frame Time: 0.016667
6.127476 3.589500 83.219032 -5.947525 -1.131601 -109.592953 -0.285954 -6.003336 4.397092 -0.080906 -2.664820 2.023318 -0.080906 -2.664820 2.023321 -0.051841 -1.998910 1.516862 -2.107538 -19.985311 5.580481 -2.134093 -0.954637 9.528712 3.977944 14.248175 -3.889209 33.145095 -14.580842 -19.851607 31.634144 -65.209086 68.629420 15.747018 2.588114 -5.981630 -4.217077 8.062213 -4.715557 -33.357452 11.791044 -10.339080 8.480837 -3.338219 13.154521 61.967458 -1.349718 -24.171928 -1.519117 -4.934894 3.968189 1.147142 -4.481965 2.153652 0.757007 3.559583 -3.245299 0.184277 -0.124210 0.064275 -2.281948 -6.827296 0.604551 -0.299082 -2.585417 4.002148 1.364104 2.954854 1.650661 -0.079739 0.212399 -0.080673 
6.077367 3.741481 83.227394 -6.118616 -1.183167 -109.875580 -0.134336 -5.994886 4.180784 -0.006984 -2.658458 1.929580 -0.006984 -2.658458 1.929578 0.003161 -1.993888 1.446892 -2.250796 -20.140585 6.014852 -2.272886 -1.247846 10.273848 4.234051 13.519485 -3.650208 33.895118 -14.316664 -19.868930 34.089980 -65.317386 67.416863 15.683182 2.394565 -5.600578 -4.514586 7.788530 -5.306475 -34.576644 12.824643 -11.513028 8.576786 -0.969540 13.208756 62.933479 2.415957 -23.236365 -1.630947 -4.932935 4.090897 1.130969 -4.621201 2.320143 0.779416 3.504887 -3.257743 0.212551 -0.106525 0.076309 -2.374604 -6.858499 0.579210 -0.388424 -2.771670 4.073916 1.488787 2.930346 1.816323 -0.067672 0.233697 -0.091598 
6.026477 3.902246 83.236519 -6.285348 -1.238069 -110.171327 0.034883 -5.994930 3.946178 0.074527 -2.656198 1.826920 0.074527 -2.656198 1.826921 0.063831 -1.991947 1.370265 -2.398701 -20.298253 6.451814 -2.421145 -1.545596 11.021835 4.431978 13.380151 -3.464102 34.442393 -14.338210 -19.830672 36.493059 -65.313629 66.091588 15.276463 2.148764 -5.061319 -4.670332 6.786655 -6.028176 -36.114168 14.898190 -13.143233 8.649789 1.854752 13.181106 63.903462 5.557273 -22.736641 -1.744338 -4.910741 4.211852 1.112911 -4.784959 2.484251 0.808362 3.454789 -3.247391 0.236652 -0.086687 0.088515 -2.469532 -6.865703 0.565619 -0.474056 -2.993106 4.184863 1.600192 2.907230 1.923919 -0.051676 0.259227 -0.101158 
5.971226 4.070374 83.247505 -6.441221 -1.297494 -110.479970 0.209651 -5.980736 3.705714 0.156632 -2.649271 1.720786 0.156632 -2.649271 1.720787 0.124918 -1.986531 1.291039 -2.538710 -20.452047 6.877601 -2.559757 -1.836605 11.751540 4.668282 13.465496 -3.278908 34.862877 -14.486097 -19.702092 38.528568 -65.104175 64.923441 14.673147 1.812993 -4.559299 -4.750560 5.326034 -6.922085 -37.998620 17.725654 -15.200849 8.770824 4.519323 13.116715 64.642652 8.609249 -22.319412 -1.858385 -4.858747 4.358696 1.101689 -4.974125 2.617407 0.845061 3.402800 -3.207734 0.253811 -0.060212 0.099997 -2.569596 -6.851550 0.558776 -0.538510 -3.230058 4.300359 1.681144 2.881213 2.036518 -0.025596 0.283208 -0.108589 
5.912969 4.238692 83.259979 -6.590216 -1.368234 -110.780737 0.385271 -5.945090 3.468757 0.235538 -2.633891 1.618280 0.235538 -2.633890 1.618282 0.183602 -1.974813 1.214513 -2.662070 -20.593780 7.280638 -2.675511 -2.105917 12.444758 4.913480 13.301894 -3.155377 35.287332 -14.520724 -19.303392 39.724179 -64.720345 64.325868 14.122181 1.183011 -4.279851 -4.694728 3.795971 -7.625578 -40.209016 20.243000 -17.741514 8.823935 6.940767 13.106202 65.311000 11.844968 -21.694762 -1.958946 -4.803879 4.486315 1.091281 -5.159008 2.736701 0.894813 3.342147 -3.154233 0.257799 -0.030126 0.110616 -2.653671 -6.838275 0.536418 -0.600018 -3.451977 4.383078 1.742489 2.848468 2.165117 0.006725 0.299176 -0.113207 
5.856540 4.403381 83.271553 -6.727603 -1.442927 -111.057257 0.569772 -5.872852 3.234073 0.313928 -2.602536 1.518238 0.313928 -2.602536 1.518235 0.241877 -1.951138 1.139819 -2.778828 -20.738503 7.658895 -2.788193 -2.380576 13.094498 5.313612 12.955164 -2.961370 35.477054 -14.428213 -18.735707 39.934426 -64.374267 64.477607 13.785020 0.253108 -4.228091 -5.050483 3.003038 -8.184148 -41.920245 21.459319 -19.941632 8.911864 9.512521 13.170194 65.865502 14.395363 -21.127433 -2.053296 -4.756098 4.557099 1.081730 -5.318898 2.875166 0.963485 3.275276 -3.091157 0.245548 -0.002815 0.117354 -2.727305 -6.837209 0.527060 -0.657375 -3.630646 4.439723 1.798573 2.810259 2.291738 0.034411 0.303184 -0.117559 
5.805815 4.559391 83.278679 -6.857366 -1.525254 -111.311436 0.758846 -5.744534 3.008239 0.392319 -2.545128 1.421560 0.392319 -2.545129 1.421562 0.300117 -1.907947 1.067630 -2.889813 -20.912371 8.015489 -2.900519 -2.708964 13.705647 5.984599 12.773934 -2.715391 35.267774 -14.506874 -18.157785 39.348891 -64.207023 65.173180 13.881425 -0.834920 -4.349274 -5.888490 3.071258 -8.740094 -42.842785 21.240174 -21.361628 9.048117 12.239891 13.155097 66.228629 15.645935 -20.290851 -2.127185 -4.724339 4.604423 1.056082 -5.456964 3.023858 1.048789 3.214235 -3.025167 0.226299 0.016544 0.124213 -2.786964 -6.857798 0.571151 -0.709297 -3.770460 4.523693 1.846805 2.785827 2.324805 0.056980 0.290073 -0.119474 
5.762265 4.705204 83.280373 -6.991390 -1.608146 -111.556578 0.952705 -5.581754 2.759921 0.471404 -2.471543 1.314263 0.471404 -2.471543 1.314265 0.358818 -1.852655 0.987454 -3.014499 -21.108317 8.373669 -3.040644 -3.077196 14.314890 7.125103 12.841733 -2.072861 34.530271 -14.716174 -17.825812 38.345181 -64.167838 66.066412 14.548045 -1.673399 -4.774021 -7.095341 3.333713 -9.619696 -42.999599 20.532754 -22.133127 9.109409 14.788300 13.084708 66.207489 16.614587 -18.703594 -2.194716 -4.713042 4.668335 1.026833 -5.579642 3.159676 1.136471 3.166802 -2.976520 0.205981 0.023130 0.127888 -2.849170 -6.910489 0.695515 -0.754331 -3.870090 4.594662 1.883377 2.782342 2.298005 0.083003 0.256716 -0.120195 
5.724958 4.845414 83.276756 -7.113649 -1.677266 -111.794651 1.118550 -5.461692 2.543163 0.536466 -2.417334 1.219966 0.536466 -2.417334 1.219967 0.407120 -1.811939 0.916960 -3.103661 -21.247600 8.678410 -3.128053 -3.341356 14.838595 7.909074 13.316230 -1.379590 34.186162 -15.097701 -17.710979 37.828081 -64.106113 66.337782 15.729844 -1.990445 -5.508936 -7.682226 2.824912 -10.101357 -43.854196 20.119043 -24.017757 9.119186 17.220587 13.028782 65.897706 17.817998 -16.801605 -2.269999 -4.696955 4.789815 1.001766 -5.694060 3.243503 1.223659 3.135459 -2.922197 0.189409 0.017387 0.129699 -2.921753 -6.976416 0.851574 -0.787196 -3.920494 4.651481 1.908146 2.779114 2.289952 0.107426 0.214938 -0.119790 
5.691944 4.978543 83.272087 -7.233171 -1.724053 -112.001982 1.246397 -5.386703 2.346272 0.583161 -2.384138 1.134488 0.583161 -2.384139 1.134488 0.441738 -1.787031 0.853020 -3.135587 -21.316529 8.915109 -3.125567 -3.477700 15.256981 7.577169 13.582693 -2.158447 34.690268 -15.992330 -16.396141 38.441671 -63.887575 65.474958 16.983532 -2.107736 -6.299047 -7.291818 1.173465 -9.886208 -46.106700 20.256217 -27.656367 9.116400 19.702324 12.876640 65.754081 19.063765 -15.166389 -2.352108 -4.686451 4.916337 0.966782 -5.795924 3.292691 1.309310 3.112180 -2.859292 0.178388 0.005530 0.131549 -3.014689 -7.046024 0.973248 -0.810256 -3.945255 4.706232 1.922282 2.768752 2.289637 0.131419 0.177843 -0.118563 
5.658774 5.107211 83.270905 -7.360289 -1.756329 -112.194873 1.360149 -5.331849 2.156718 0.623975 -2.361128 1.052739 0.623975 -2.361128 1.052736 0.471985 -1.769780 0.791855 -3.133410 -21.346457 9.085572 -3.076743 -3.542154 15.565958 6.778512 11.674280 -3.651749 35.272709 -15.645293 -13.355329 39.726979 -63.486834 64.053924 18.005722 -2.322837 -6.991756 -6.839959 -0.637571 -10.344144 -48.265791 21.072163 -31.000087 8.893164 22.061450 12.496155 65.700307 19.937684 -13.797853 -2.443063 -4.680838 5.034766 0.928064 -5.895898 3.328333 1.389925 3.085480 -2.803842 0.172100 -0.002888 0.132075 -3.122833 -7.123899 1.036435 -0.829983 -3.951480 4.791834 1.928041 2.742091 2.311929 0.153145 0.153463 -0.117689 
5.625891 5.225218 83.273865 -7.488248 -1.783757 -112.365880 1.507451 -5.325545 2.004239 0.682150 -2.358984 0.987787 0.682150 -2.358985 0.987786 0.515357 -1.768143 0.743369 -3.138495 -21.340682 9.159612 -3.064635 -3.534908 15.698872 6.514995 9.169461 -4.056245 35.438559 -14.307765 -10.843509 40.835618 -63.020660 62.934825 18.888550 -2.546930 -7.559128 -7.148341 -1.244359 -10.967563 -49.613739 20.868243 -33.194716 8.736009 23.925225 11.878453 65.478401 20.349092 -12.389483 -2.527757 -4.690130 5.115962 0.881586 -5.975380 3.373129 1.467067 3.043972 -2.753931 0.166948 -0.003344 0.132406 -3.234488 -7.195209 1.070284 -0.848978 -3.953617 4.901741 1.929403 2.705104 2.312235 0.173894 0.137237 -0.116043 
5.590051 5.344224 83.278198 -7.594604 -1.807324 -112.495374 1.656740 -5.296682 1.837557 0.747469 -2.347775 0.916483 0.747470 -2.347776 0.916480 0.564047 -1.759719 0.690141 -3.151515 -21.346382 9.189043 -3.080465 -3.545704 15.748309 6.629116 8.517911 -3.941013 35.410204 -14.233503 -9.840046 41.541627 -62.657806 62.305054 19.717561 -2.697859 -8.153672 -7.447277 -1.383570 -11.126627 -50.780325 19.470953 -35.102760 8.617685 25.322906 11.200574 65.266358 20.872034 -10.599088 -2.616832 -4.687340 5.133735 0.850764 -6.042261 3.433054 1.548246 2.991470 -2.671888 0.154941 0.002519 0.131597 -3.326467 -7.257187 1.104509 -0.866199 -3.949937 4.987367 1.916642 2.681478 2.312089 0.193772 0.117499 -0.116866 
5.560702 5.458357 83.281235 -7.679374 -1.839599 -112.589371 1.823476 -5.243330 1.653256 0.825009 -2.323927 0.835792 0.825008 -2.323927 0.835793 0.621853 -1.741825 0.629895 -3.177343 -21.367659 9.184358 -3.130484 -3.582180 15.731811 6.653070 8.679877 -3.784194 35.423086 -14.674103 -9.373004 41.925207 -62.504352 62.007387 20.584414 -2.719463 -8.816873 -7.486639 -2.074047 -11.315527 -51.846245 18.028619 -37.251783 8.331198 26.891718 10.488166 65.161644 21.605381 -8.739772 -2.694573 -4.685596 5.106180 0.840078 -6.092916 3.493840 1.634593 2.939627 -2.602251 0.129255 0.008222 0.128606 -3.405333 -7.301378 1.168682 -0.879925 -3.938597 5.020714 1.908402 2.658331 2.317463 0.213541 0.091706 -0.115396 
5.540622 5.573730 83.283661 -7.745616 -1.873475 -112.647674 1.996335 -5.172863 1.463036 0.908520 -2.291644 0.752873 0.908520 -2.291643 0.752871 0.684125 -1.717621 0.567984 -3.190189 -21.390479 9.136099 -3.169385 -3.620515 15.640054 6.649384 8.552976 -3.627606 35.371702 -14.686566 -8.751004 42.261112 -62.504345 61.716230 21.603516 -2.660894 -9.507493 -7.446741 -3.123163 -11.903007 -52.698594 17.085575 -39.281958 7.643218 28.828197 9.495099 65.059478 22.102280 -7.174106 -2.769984 -4.690111 5.061669 0.833126 -6.120982 3.544769 1.743208 2.890110 -2.536211 0.094574 0.012592 0.126975 -3.463869 -7.352681 1.258514 -0.893884 -3.902490 4.984179 1.891100 2.634740 2.295864 0.235086 0.064452 -0.116539 
5.530606 5.685746 83.286812 -7.792486 -1.905796 -112.687179 2.197837 -5.094214 1.246289 1.003884 -2.256431 0.656439 1.003884 -2.256432 0.656434 0.755242 -1.691254 0.495972 -3.199702 -21.409733 9.060073 -3.209655 -3.651217 15.499040 6.464416 8.326732 -3.676045 35.374472 -14.597861 -7.874196 42.999692 -62.544718 60.993890 22.592678 -2.617044 -10.232436 -7.610638 -3.620832 -12.315068 -53.382750 15.819534 -40.803967 6.710336 30.608315 8.166552 64.719171 22.190694 -5.704546 -2.837660 -4.690441 5.071575 0.829394 -6.139177 3.546021 1.862253 2.844931 -2.479029 0.059649 0.018697 0.123867 -3.519260 -7.391404 1.353404 -0.908469 -3.856837 4.921587 1.862430 2.606351 2.302984 0.267579 0.040677 -0.115582 
5.525112 5.801458 83.291306 -7.832245 -1.933517 -112.714644 2.402099 -5.023265 0.997145 1.098971 -2.227049 0.545072 1.098971 -2.227050 0.545073 0.826112 -1.669316 0.412763 -3.194076 -21.414853 8.967154 -3.225943 -3.656488 15.332122 6.241306 8.136640 -3.741789 35.382180 -14.503613 -6.987682 44.050448 -62.559267 59.966513 23.524037 -2.612560 -10.947256 -7.900652 -3.846692 -12.609627 -53.984077 14.352085 -42.054428 5.723852 31.803229 6.573236 64.280502 22.385948 -3.962610 -2.905179 -4.688468 5.130566 0.824954 -6.152013 3.510892 1.983612 2.801422 -2.461287 0.033573 0.026257 0.121778 -3.573677 -7.428876 1.420863 -0.918515 -3.805902 4.878603 1.812531 2.573340 2.294637 0.304923 0.024356 -0.114694 
